<svg width="512" height="512" xmlns="http://www.w3.org/2000/svg">
 <!-- Created with Method Draw - http://github.com/duopixel/Method-Draw/ -->

 <g>
  <title>background</title>
  <rect fill="#fff" id="canvas_background" height="514" width="514" y="-1" x="-1"/>
  <g display="none" overflow="visible" y="0" x="0" height="100%" width="100%" id="canvasGrid">
   <rect fill="url(#gridpattern)" stroke-width="0" y="0" x="0" height="100%" width="100%"/>
  </g>
 </g>
 <g>
  <title>Layer 1</title>
  <g fill="#fff" id="svg_18">
   <g stroke="null" transform="matrix(0.9782986694222532,0,0,0.9802517945386685,-43.359377067536116,-51.27929894719273) " id="svg_15">
    <g stroke="null" id="svg_16">
     <path stroke="null" id="svg_17" d="m512.223,59l-412.445,0c-27.493,0 -49.778,22.285 -49.778,49.778l0,412.445c0,27.492 22.285,49.777 49.778,49.777l412.445,0c27.492,0 49.777,-22.285 49.777,-49.777l0,-412.445c0,-27.493 -22.285,-49.778 -49.777,-49.778zm-61.487,307.417l0,37.958c-0.743,7.514 -6.569,13.431 -14.035,14.361l-214.364,0.014c-15.872,0 -29.403,-5.118 -40.583,-15.333c-11.171,-10.229 -16.761,-22.598 -16.761,-37.132c0,-11.562 3.777,-21.841 11.337,-30.896c7.565,-9.027 17.143,-15.319 28.736,-18.889l187.309,-53.524l-227.375,0l0,-36.239c0.107,-7.607 5.482,-13.903 12.652,-15.479l215.736,0c15.875,0 29.389,5.076 40.569,15.208c11.181,10.149 16.778,22.261 16.778,36.354c0,11.768 -3.819,22.122 -11.431,31.083c-7.618,8.973 -17.417,15.223 -29.403,18.736l-187.565,53.778l228.4,0z" fill="#f87d09"/>
    </g>
   </g>
  </g>
 </g>
</svg>